<svg data-v-423bf9ae="" xmlns="http://www.w3.org/2000/svg" viewBox="0 0 322 90" class="iconLeft"><!----><!----><!----><g data-v-423bf9ae="" id="4c6fda3f-4794-4403-a107-c5edfde41123" fill="white" transform="matrix(5.940593835033989,0,0,5.940593835033989,107.92078802963279,-16.128711289558396)"><path d="M8.99 5.24Q8.89 6.57 8.89 7.62L8.89 7.62Q8.89 8.27 8.93 8.68L8.93 8.68L8.61 8.68Q8.27 6.96 7.69 6.26Q7.11 5.56 6.10 5.56L6.10 5.56L5.78 5.56L5.78 13.55Q5.78 14.14 5.90 14.41Q6.02 14.67 6.32 14.76Q6.62 14.85 7.28 14.87L7.28 14.87L7.28 15.15Q5.52 15.11 4.62 15.11L4.62 15.11Q3.74 15.11 2.06 15.15L2.06 15.15L2.06 14.87Q2.72 14.85 3.02 14.76Q3.32 14.67 3.44 14.41Q3.56 14.14 3.56 13.55L3.56 13.55L3.56 5.56L3.25 5.56Q2.58 5.56 2.11 5.85Q1.64 6.15 1.30 6.82Q0.97 7.50 0.73 8.68L0.73 8.68L0.41 8.68Q0.45 8.27 0.45 7.62L0.45 7.62Q0.45 6.57 0.35 5.24L0.35 5.24Q1.62 5.28 4.68 5.28L4.68 5.28Q7.73 5.28 8.99 5.24L8.99 5.24ZM13.23 14.20Q14.38 14.20 15.08 13.08L15.08 13.08L15.33 13.16Q15.05 14.07 14.33 14.71Q13.61 15.34 12.53 15.34L12.53 15.34Q11.05 15.34 10.17 14.40Q9.30 13.45 9.30 11.61L9.30 11.61Q9.30 9.72 10.23 8.71Q11.17 7.71 12.73 7.71L12.73 7.71Q15.36 7.71 15.36 10.82L15.36 10.82L11.42 10.82Q11.41 11.03 11.41 11.48L11.41 11.48Q11.41 12.40 11.67 13.02Q11.93 13.64 12.34 13.92Q12.75 14.20 13.23 14.20L13.23 14.20ZM12.64 8.01Q12.14 8.01 11.81 8.63Q11.48 9.25 11.40 10.56L11.40 10.56L13.59 10.56Q13.62 9.45 13.38 8.73Q13.13 8.01 12.64 8.01L12.64 8.01ZM20.90 7.71Q21.53 7.71 21.85 8.09Q22.18 8.47 22.18 9.00L22.18 9.00Q22.18 9.52 21.88 9.85Q21.57 10.18 21.08 10.18L21.08 10.18Q20.61 10.18 20.33 9.93Q20.05 9.69 20.05 9.28L20.05 9.28Q20.05 8.61 20.66 8.19L20.66 8.19Q20.61 8.18 20.50 8.18L20.50 8.18Q20.36 8.18 20.27 8.20L20.27 8.20Q19.74 8.29 19.37 8.85Q19.00 9.41 19.00 10.00L19.00 10.00L19.00 13.71Q19.00 14.35 19.31 14.60Q19.63 14.85 20.31 14.85L20.31 14.85L20.31 15.15Q20.12 15.15 19.99 15.13L19.99 15.13Q18.56 15.09 18.09 15.09L18.09 15.09Q17.71 15.09 16.37 15.13L16.37 15.13Q16.25 15.15 16.09 15.15L16.09 15.15L16.09 14.85Q16.59 14.85 16.79 14.64Q16.98 14.42 16.98 13.85L16.98 13.85L16.98 9.44Q16.98 8.79 16.79 8.50Q16.59 8.20 16.09 8.20L16.09 8.20L16.09 7.91Q16.53 7.95 16.95 7.95L16.95 7.95Q18.20 7.95 19.00 7.76L19.00 7.76L19.00 9.06Q19.26 8.46 19.77 8.09Q20.27 7.71 20.90 7.71L20.90 7.71ZM27.44 7.71Q28.07 7.71 28.39 8.09Q28.71 8.47 28.71 9.00L28.71 9.00Q28.71 9.52 28.41 9.85Q28.11 10.18 27.62 10.18L27.62 10.18Q27.15 10.18 26.87 9.93Q26.59 9.69 26.59 9.28L26.59 9.28Q26.59 8.61 27.20 8.19L27.20 8.19Q27.15 8.18 27.03 8.18L27.03 8.18Q26.89 8.18 26.81 8.20L26.81 8.20Q26.28 8.29 25.91 8.85Q25.54 9.41 25.54 10.00L25.54 10.00L25.54 13.71Q25.54 14.35 25.85 14.60Q26.17 14.85 26.85 14.85L26.85 14.85L26.85 15.15Q26.66 15.15 26.53 15.13L26.53 15.13Q25.10 15.09 24.63 15.09L24.63 15.09Q24.25 15.09 22.90 15.13L22.90 15.13Q22.79 15.15 22.62 15.15L22.62 15.15L22.62 14.85Q23.13 14.85 23.32 14.64Q23.52 14.42 23.52 13.85L23.52 13.85L23.52 9.44Q23.52 8.79 23.32 8.50Q23.13 8.20 22.62 8.20L22.62 8.20L22.62 7.91Q23.07 7.95 23.49 7.95L23.49 7.95Q24.74 7.95 25.54 7.76L25.54 7.76L25.54 9.06Q25.80 8.46 26.31 8.09Q26.81 7.71 27.44 7.71L27.44 7.71ZM31.01 15.25Q30.11 15.25 29.67 14.78Q29.23 14.32 29.23 13.57L29.23 13.57Q29.23 12.94 29.56 12.52Q29.89 12.11 30.36 11.89Q30.83 11.66 31.56 11.41L31.56 11.41Q32.33 11.14 32.68 10.93Q33.04 10.71 33.04 10.33L33.04 10.33L33.04 9.24Q33.04 8.65 32.77 8.32Q32.49 7.99 31.92 7.99L31.92 7.99Q31.25 7.99 30.90 8.33L30.90 8.33Q31.29 8.47 31.51 8.75Q31.72 9.03 31.72 9.41L31.72 9.41Q31.72 9.88 31.40 10.16Q31.08 10.44 30.62 10.44L30.62 10.44Q30.13 10.44 29.86 10.14Q29.60 9.83 29.60 9.37L29.60 9.37Q29.60 8.97 29.79 8.70Q29.97 8.43 30.37 8.19L30.37 8.19Q30.74 7.97 31.30 7.84Q31.85 7.71 32.51 7.71L32.51 7.71Q33.19 7.71 33.70 7.85Q34.20 7.99 34.54 8.33L34.54 8.33Q34.85 8.64 34.95 9.09Q35.06 9.53 35.06 10.30L35.06 10.30L35.06 14.11Q35.06 14.45 35.12 14.59Q35.18 14.73 35.36 14.73L35.36 14.73Q35.57 14.73 35.87 14.49L35.87 14.49L36.01 14.73Q35.38 15.25 34.47 15.25L34.47 15.25Q33.70 15.25 33.39 14.94Q33.08 14.63 33.07 14.11L33.07 14.11Q32.37 15.25 31.01 15.25L31.01 15.25ZM32.09 14.35Q32.63 14.35 33.04 13.78L33.04 13.78L33.04 10.91Q32.87 11.19 32.33 11.52L32.33 11.52Q31.78 11.87 31.50 12.22Q31.22 12.57 31.22 13.23L31.22 13.23Q31.22 13.80 31.46 14.08Q31.70 14.35 32.09 14.35L32.09 14.35Z"></path></g><!----><g data-v-423bf9ae="" id="af2e7dc1-f12b-4e55-b423-795e2bfa43bf" transform="matrix(2.8125,0,0,2.8125,0,0)" stroke="none" fill="white"><path d="M15.965 16.258l.707-.707 10.39 10.39-.707.707z"></path><path d="M4.935 26.357L26.018 5.274l.707.707L5.642 27.065z"></path><path d="M31 1v4.194h-4.194V1H31m1-1h-6.194v6.194H32V0zM31 26.806V31h-4.194v-4.194H31m1-1h-6.194V32H32v-6.194zM5.194 26.806V31H1v-4.194h4.194m1-1H0V32h6.194v-6.194z"></path></g><!----></svg>